<svg id="Layer_1" data-name="Layer 1" xmlns="http://www.w3.org/2000/svg" xmlns:xlink="http://www.w3.org/1999/xlink" viewBox="0 0 291.67 118.79"><defs><style>.cls-1{isolation:isolate;}.cls-2{fill:#02304c;}.cls-3{fill:url(#linear-gradient);}.cls-4{fill:url(#linear-gradient-2);}.cls-5{fill:url(#linear-gradient-3);}</style><linearGradient id="linear-gradient" x1="-266.14" y1="310.08" x2="-266.14" y2="309.08" gradientTransform="matrix(0, 17.6, 41.93, 0, -12904.39, 4721.71)" gradientUnits="userSpaceOnUse"><stop offset="0" stop-color="#e86016"/><stop offset="0.54" stop-color="#ee7729"/><stop offset="1" stop-color="#ffbd64"/></linearGradient><linearGradient id="linear-gradient-2" x1="-266.14" y1="309.06" x2="-266.14" y2="310.06" gradientTransform="matrix(0, 17.6, 42.01, 0, -12981.4, 4757.35)" gradientUnits="userSpaceOnUse"><stop offset="0" stop-color="#e86016"/><stop offset="1" stop-color="#ffbd64"/></linearGradient><linearGradient id="linear-gradient-3" x1="-270.69" y1="299.91" x2="-270.69" y2="300.91" gradientTransform="matrix(40.84, 0, 0, -78.82, 11105.34, 23730.6)" gradientUnits="userSpaceOnUse"><stop offset="0" stop-color="#e87532"/><stop offset="1" stop-color="#ffbd64"/></linearGradient></defs><g id="Group_17" data-name="Group 17"><g id="ETC" class="cls-1"><g class="cls-1"><path class="cls-2" d="M146,58.79h-21.4V72.12h25.12v8.24H113.44V30.59h36.19V38.9h-25V50.76H146Z" transform="translate(0 -3.44)"/><path class="cls-2" d="M197.72,38.9H181.14V80.36H170V38.9H153.65V30.59h44.07Z" transform="translate(0 -3.44)"/><path class="cls-2" d="M245.5,63.78a17.1,17.1,0,0,1-6.45,12.65Q233.25,81,223.73,81q-10.41,0-16.37-6.44t-6-17.69v-3a27.85,27.85,0,0,1,2.75-12.65A19.58,19.58,0,0,1,212,32.83a23.5,23.5,0,0,1,11.87-2.92q9.38,0,15.09,4.61t6.61,13H234.43q-.42-4.83-2.92-7t-7.64-2.16q-5.56,0-8.34,3.67t-2.84,11.4v3.76q0,8.07,2.66,11.79t8.38,3.73q5.16,0,7.71-2.18t2.91-6.71Z" transform="translate(0 -3.44)"/></g></g><g id="Group_16" data-name="Group 16"><path id="Subtraction_3" data-name="Subtraction 3" class="cls-2" d="M49.5,102.44a49.32,49.32,0,0,1-35-14.5,50.1,50.1,0,0,1-5.14-6h9.06c.33.36.68.72,1,1.07A42.48,42.48,0,0,0,92,52.94,42.15,42.15,0,0,0,88.66,36.4c-.35-.83-.74-1.67-1.14-2.48h7.7A49.56,49.56,0,0,1,68.76,98.55,49,49,0,0,1,49.5,102.44ZM13,74.77h-8c-.42-.86-.81-1.72-1.17-2.56A49.51,49.51,0,0,1,91.45,26.66H82.9A42.71,42.71,0,0,0,66,13.78a42.51,42.51,0,0,0-53,61Z" transform="translate(0 -3.44)"/><path id="Path_24" data-name="Path 24" class="cls-3" d="M95.23,33.92H76.13a8.84,8.84,0,0,0-1.95-2.55,8.3,8.3,0,0,0-2.94-1.47H65.47V28.42a2.46,2.46,0,0,0-1.32-.62,2,2,0,0,0-1.21.62v2.95H56s-.8.52-.8,1.07.8,1.13.8,1.13h7v6.27H56s-.8.53-.8,1,.8,1,.8,1h7v2.79s.63.73,1.21.73,1.1-.73,1.1-.73V43.34h6a7,7,0,0,0,3-1.45,9.15,9.15,0,0,0,1.94-2.75h21Z" transform="translate(0 -3.44)"/><path id="Path_23" data-name="Path 23" class="cls-4" d="M3,69.55H24a8.79,8.79,0,0,1,2-2.54,8,8,0,0,1,2.94-1.47h5.77V64.05A2.44,2.44,0,0,1,36,63.44a2,2,0,0,1,1.21.61v3h7s.8.51.8,1.06-.8,1.14-.8,1.14h-7v6.26h7s.8.53.8,1-.8,1-.8,1h-7v2.78S36.55,81,36,81s-1.1-.73-1.1-.73V79h-6a7,7,0,0,1-2.94-1.44,9.22,9.22,0,0,1-2-2.76H4.89Z" transform="translate(0 -3.44)"/><path id="Path_22" data-name="Path 22" class="cls-5" d="M54.69,13.92,46.76,48.06H71.11L43.35,92.74h0L54.69,60.83H30.27L54.69,13.92Z" transform="translate(0 -3.44)"/></g><path d="M1.87,118.36V106.48H10v.83H2.77v4.59H8.48v.84H2.77v4.79h7.51v.83Z" transform="translate(0 -3.44)"/><path d="M13.45,105.22v11a1.86,1.86,0,0,0,.28,1.17,1.13,1.13,0,0,0,.9.34,2.44,2.44,0,0,0,.61-.06,3.5,3.5,0,0,0,.53-.17l-.13.79a2.36,2.36,0,0,1-.53.17,3.37,3.37,0,0,1-.66.06A1.79,1.79,0,0,1,13,118a2.62,2.62,0,0,1-.47-1.72v-11Z" transform="translate(0 -3.44)"/><path d="M21.15,118.54a4.35,4.35,0,0,1-2.21-.56,3.82,3.82,0,0,1-1.52-1.61,6,6,0,0,1,0-5,3.92,3.92,0,0,1,1.48-1.61,4.11,4.11,0,0,1,2.14-.56,3.87,3.87,0,0,1,2.09.54,3.53,3.53,0,0,1,1.33,1.5,5.11,5.11,0,0,1,.47,2.23c0,.11,0,.21,0,.31a2.19,2.19,0,0,1,0,.28H17.42v-.81H24.5l-.45.13a3.69,3.69,0,0,0-.82-2.47A2.79,2.79,0,0,0,21,110a3.26,3.26,0,0,0-1.71.46,3.13,3.13,0,0,0-1.15,1.33,5,5,0,0,0-.41,2.1,4.84,4.84,0,0,0,.42,2.09,3.06,3.06,0,0,0,1.19,1.34,3.34,3.34,0,0,0,1.77.46,3.4,3.4,0,0,0,1.79-.45,3,3,0,0,0,1.16-1.24l.72.41a3.46,3.46,0,0,1-.86,1.11,4.09,4.09,0,0,1-1.24.71A4.54,4.54,0,0,1,21.15,118.54Z" transform="translate(0 -3.44)"/><path d="M31.14,109.18a4.44,4.44,0,0,1,1.64.29,3.27,3.27,0,0,1,1.22.83,3.66,3.66,0,0,1,.78,1.31l-.85.4a2.85,2.85,0,0,0-1-1.51,3,3,0,0,0-1.81-.53,3.32,3.32,0,0,0-1.74.46,3,3,0,0,0-1.17,1.33,5.44,5.44,0,0,0,0,4.19,3,3,0,0,0,1.15,1.34,3.18,3.18,0,0,0,1.74.46,3.77,3.77,0,0,0,1.38-.25A2.48,2.48,0,0,0,34,115.61l.83.28a3.66,3.66,0,0,1-.77,1.43,3.52,3.52,0,0,1-1.29.91,4.62,4.62,0,0,1-3.87-.25,3.8,3.8,0,0,1-1.51-1.61,5.44,5.44,0,0,1-.54-2.51,5.31,5.31,0,0,1,.55-2.51A3.92,3.92,0,0,1,29,109.74,4.3,4.3,0,0,1,31.14,109.18Z" transform="translate(0 -3.44)"/><path d="M42.14,109.36v.78H36.07v-.78Zm-3.37-2.5V116a1.83,1.83,0,0,0,.41,1.29,1.5,1.5,0,0,0,1.18.44,2.11,2.11,0,0,0,.89-.17,2.18,2.18,0,0,0,.69-.49l.34.73a2.36,2.36,0,0,1-.86.55,3.13,3.13,0,0,1-1.17.21,2.86,2.86,0,0,1-1.24-.26,1.86,1.86,0,0,1-.84-.8,2.81,2.81,0,0,1-.3-1.37v-9Z" transform="translate(0 -3.44)"/><path d="M44.06,118.36v-9h.76l.11,1.89a3.09,3.09,0,0,1,1.1-1.51,3,3,0,0,1,1.81-.56,2.59,2.59,0,0,1,.65.07,1.1,1.1,0,0,1,.47.24l-.2.79a1.54,1.54,0,0,0-.43-.2,2.5,2.5,0,0,0-.7-.07,2.26,2.26,0,0,0-1.3.42,3,3,0,0,0-1,1.17,3.79,3.79,0,0,0-.38,1.72v5Z" transform="translate(0 -3.44)"/><path d="M51.32,107.61a.76.76,0,1,1,.55-1.3.86.86,0,0,1,0,1.1A.73.73,0,0,1,51.32,107.61Zm.45,1.75v9h-.9v-9Z" transform="translate(0 -3.44)"/><path d="M58.61,109.18a4.44,4.44,0,0,1,1.64.29,3.35,3.35,0,0,1,1.22.83,3.64,3.64,0,0,1,.77,1.31l-.84.4a2.85,2.85,0,0,0-1-1.51,3,3,0,0,0-1.81-.53,3.38,3.38,0,0,0-1.75.46,3.11,3.11,0,0,0-1.17,1.33,5.56,5.56,0,0,0,0,4.19,3.06,3.06,0,0,0,1.16,1.34,3.18,3.18,0,0,0,1.74.46A3.81,3.81,0,0,0,60,117.5a2.64,2.64,0,0,0,1-.74,2.6,2.6,0,0,0,.54-1.15l.82.28a3.52,3.52,0,0,1-.76,1.43,3.6,3.6,0,0,1-1.29.91,4.35,4.35,0,0,1-1.69.31A4.3,4.3,0,0,1,56.4,118a3.83,3.83,0,0,1-1.5-1.61,5.44,5.44,0,0,1-.54-2.51,5.31,5.31,0,0,1,.55-2.51,3.86,3.86,0,0,1,1.51-1.61A4.3,4.3,0,0,1,58.61,109.18Z" transform="translate(0 -3.44)"/><path d="M70.25,112.44a2.5,2.5,0,0,0-.63-1.82,2.4,2.4,0,0,0-1.8-.65,3.4,3.4,0,0,0-1.76.44,2.7,2.7,0,0,0-1.1,1.47l-.74-.47a3.23,3.23,0,0,1,1.33-1.64,4.19,4.19,0,0,1,2.29-.59,4.12,4.12,0,0,1,1.74.35,2.66,2.66,0,0,1,1.16,1,3.19,3.19,0,0,1,.41,1.71v4.5c0,.63.29,1,.87,1a1.45,1.45,0,0,0,.65-.13l-.06.72a1.65,1.65,0,0,1-.79.17,1.81,1.81,0,0,1-.77-.17,1.22,1.22,0,0,1-.59-.54,2,2,0,0,1-.22-1v-.49l.25,0a2.42,2.42,0,0,1-.71,1.29,3.5,3.5,0,0,1-1.27.76,4.53,4.53,0,0,1-1.44.24,4,4,0,0,1-1.51-.27,2.35,2.35,0,0,1-1-.78,2.3,2.3,0,0,1,.3-2.9,3.86,3.86,0,0,1,1.9-.86l3.72-.73v.75l-3.27.65a3.83,3.83,0,0,0-1.59.63,1.5,1.5,0,0,0,0,2.3,2.58,2.58,0,0,0,1.58.42,4,4,0,0,0,1.07-.15,3,3,0,0,0,1-.45,2.33,2.33,0,0,0,.73-.8,2.29,2.29,0,0,0,.27-1.16Z" transform="translate(0 -3.44)"/><path d="M75.35,105.22v11a1.79,1.79,0,0,0,.29,1.17,1.1,1.1,0,0,0,.9.34,2.41,2.41,0,0,0,.6-.06,3.18,3.18,0,0,0,.53-.17l-.13.79a2.36,2.36,0,0,1-.53.17,3.27,3.27,0,0,1-.65.06,1.8,1.8,0,0,1-1.44-.55,2.62,2.62,0,0,1-.47-1.72v-11Z" transform="translate(0 -3.44)"/><path d="M92.39,106.48v.83H88.05v11h-.9v-11H82.82v-.83Z" transform="translate(0 -3.44)"/><path d="M96.05,118.54a4.41,4.41,0,0,1-2.22-.56,3.94,3.94,0,0,1-1.52-1.61,6,6,0,0,1,0-5,3.94,3.94,0,0,1,1.49-1.61,4.09,4.09,0,0,1,2.14-.56,3.89,3.89,0,0,1,2.09.54,3.59,3.59,0,0,1,1.33,1.5,5.11,5.11,0,0,1,.47,2.23c0,.11,0,.21,0,.31s0,.2,0,.28H92.32v-.81H99.4l-.46.13a3.69,3.69,0,0,0-.81-2.47,2.79,2.79,0,0,0-2.21-.92,3.21,3.21,0,0,0-1.71.46,3.07,3.07,0,0,0-1.15,1.33,5.5,5.5,0,0,0,0,4.19,3.06,3.06,0,0,0,1.19,1.34,3.34,3.34,0,0,0,1.77.46,3.42,3.42,0,0,0,1.79-.45A3.08,3.08,0,0,0,99,116.06l.72.41a3.6,3.6,0,0,1-.86,1.11,4.15,4.15,0,0,1-1.25.71A4.44,4.44,0,0,1,96.05,118.54Z" transform="translate(0 -3.44)"/><path d="M105.44,118.54A5.11,5.11,0,0,1,103,118a3.07,3.07,0,0,1-1.48-1.6l.77-.52a2.6,2.6,0,0,0,1.16,1.39,4,4,0,0,0,2,.5,3.25,3.25,0,0,0,1.87-.47,1.43,1.43,0,0,0,.67-1.24,1.36,1.36,0,0,0-.33-.91,2.31,2.31,0,0,0-1.25-.59l-2.11-.44a3.44,3.44,0,0,1-1.84-.88,2.2,2.2,0,0,1-.12-2.76,3.08,3.08,0,0,1,1.2-.93,4.86,4.86,0,0,1,4,.18,2.87,2.87,0,0,1,1.24,1.6l-.75.48a2.26,2.26,0,0,0-1-1.39,3.4,3.4,0,0,0-1.72-.43,3.5,3.5,0,0,0-1.32.23,2.11,2.11,0,0,0-.89.61,1.36,1.36,0,0,0-.31.89,1.45,1.45,0,0,0,.36,1,2.29,2.29,0,0,0,1.28.62l2.16.46a3.4,3.4,0,0,1,1.78.82,2,2,0,0,1,.5,1.36,2.33,2.33,0,0,1-.43,1.41,2.79,2.79,0,0,1-1.22.91A5,5,0,0,1,105.44,118.54Z" transform="translate(0 -3.44)"/><path d="M116.33,109.36v.78h-6.06v-.78Zm-3.36-2.5V116a1.83,1.83,0,0,0,.4,1.29,1.5,1.5,0,0,0,1.18.44,2.06,2.06,0,0,0,1.58-.66l.35.73a2.4,2.4,0,0,1-.87.55,3.13,3.13,0,0,1-1.17.21,2.86,2.86,0,0,1-1.24-.26,1.86,1.86,0,0,1-.84-.8,2.93,2.93,0,0,1-.29-1.37v-9Z" transform="translate(0 -3.44)"/><path d="M118.71,107.61a.69.69,0,1,1,.55-.2A.73.73,0,0,1,118.71,107.61Zm.45,1.75v9h-.9v-9Z" transform="translate(0 -3.44)"/><path d="M122.36,118.36v-9h.81l.07,2.25-.14-.13a3.26,3.26,0,0,1,2-2,4.17,4.17,0,0,1,1.51-.27,4.06,4.06,0,0,1,1.79.38,2.78,2.78,0,0,1,1.21,1.12,3.57,3.57,0,0,1,.44,1.85v5.83h-.9v-5.54a2.81,2.81,0,0,0-.73-2.16,2.64,2.64,0,0,0-1.9-.69,3.26,3.26,0,0,0-1.57.39,3.11,3.11,0,0,0-1.19,1.12,3.44,3.44,0,0,0-.46,1.8v5.08Z" transform="translate(0 -3.44)"/><path d="M137.73,117.44a3.46,3.46,0,0,1,2.09.56,1.75,1.75,0,0,1,.76,1.49,2,2,0,0,1-.55,1.44,3.67,3.67,0,0,1-1.5,1,6.44,6.44,0,0,1-2.18.34,5.82,5.82,0,0,1-3.12-.69,2,2,0,0,1-1.08-1.74,1.83,1.83,0,0,1,.55-1.31,2.52,2.52,0,0,1,1.61-.67l-.07.16a2.67,2.67,0,0,1-1-.54,1.33,1.33,0,0,1-.45-1.08,1.54,1.54,0,0,1,.57-1.23,2.59,2.59,0,0,1,1.5-.55l1,.32h-.38a2.61,2.61,0,0,0-1.32.41,1.07,1.07,0,0,0-.5.91,1,1,0,0,0,.48.92,2.24,2.24,0,0,0,1.21.3Zm-1.51-8.26a4.44,4.44,0,0,1,1.88.37,3,3,0,0,1,1.27,1,2.63,2.63,0,0,1,.45,1.53,2.7,2.7,0,0,1-.45,1.54,2.94,2.94,0,0,1-1.27,1,4.6,4.6,0,0,1-1.88.37,4,4,0,0,1-2.67-.82,2.68,2.68,0,0,1-1-2.14,2.56,2.56,0,0,1,.46-1.53,3,3,0,0,1,1.27-1A4.54,4.54,0,0,1,136.22,109.18Zm.13,12.29a5.76,5.76,0,0,0,1.82-.25,2.87,2.87,0,0,0,1.16-.67,1.33,1.33,0,0,0,.4-1,1.14,1.14,0,0,0-.55-1,2.87,2.87,0,0,0-1.66-.38H135a2.38,2.38,0,0,0-1.4.39,1.26,1.26,0,0,0-.56,1.07,1.48,1.48,0,0,0,.89,1.3A5.11,5.11,0,0,0,136.35,121.47Zm-.13-11.55a3,3,0,0,0-1.94.6,1.92,1.92,0,0,0-.76,1.59,2,2,0,0,0,.76,1.61,3.39,3.39,0,0,0,3.88,0,2,2,0,0,0,.74-1.61,1.93,1.93,0,0,0-.74-1.59A3,3,0,0,0,136.22,109.92Zm4.36-2.22.21.8h-.09a1.84,1.84,0,0,0-1.35.46,1.67,1.67,0,0,0-.48,1.28l-.58-.29a2.34,2.34,0,0,1,.29-1.18,2.07,2.07,0,0,1,.79-.79,2.4,2.4,0,0,1,1.14-.28h.07Z" transform="translate(0 -3.44)"/><path d="M150.87,118.54a4.46,4.46,0,0,1-1.89-.37,2.93,2.93,0,0,1-1.26-1,2.71,2.71,0,0,1-.45-1.55,3.59,3.59,0,0,1,.19-1.17,3.17,3.17,0,0,1,.58-1,5.23,5.23,0,0,1,1-.88,12,12,0,0,1,1.38-.81l.45-.21c.5-.29.93-.56,1.29-.82a3.29,3.29,0,0,0,.85-.86,2.17,2.17,0,0,0,.31-1.17,1.48,1.48,0,0,0-.48-1.16,1.89,1.89,0,0,0-1.29-.42,1.84,1.84,0,0,0-1.37.5,1.71,1.71,0,0,0-.48,1.25,2.34,2.34,0,0,0,.1.71,3.31,3.31,0,0,0,.4.81q.32.48.9,1.26l1.59,2.06c.69.87,1.27,1.59,1.72,2.14a13.07,13.07,0,0,0,1.17,1.26,3,3,0,0,0,.89.59,2.27,2.27,0,0,0,.86.17l-.2.68a2.75,2.75,0,0,1-.95-.17,3.35,3.35,0,0,1-1-.63,12.71,12.71,0,0,1-1.28-1.32c-.49-.58-1.1-1.32-1.82-2.22s-1.16-1.47-1.57-2-.75-1-1-1.37a4.73,4.73,0,0,1-.53-1,3,3,0,0,1-.15-1,2.56,2.56,0,0,1,.32-1.26,2.33,2.33,0,0,1,.92-.92,3.08,3.08,0,0,1,1.52-.34,3,3,0,0,1,1.31.27,2.06,2.06,0,0,1,.87.78,2.28,2.28,0,0,1,.32,1.21,2.92,2.92,0,0,1-.3,1.35,3.32,3.32,0,0,1-.91,1.1,10.8,10.8,0,0,1-1.6,1.06l-.38.15a13.19,13.19,0,0,0-1.54.94,3.29,3.29,0,0,0-.92,1,2.58,2.58,0,0,0-.31,1.32,2.06,2.06,0,0,0,.38,1.22,2.34,2.34,0,0,0,1,.79,3.56,3.56,0,0,0,1.42.27,3.92,3.92,0,0,0,1.85-.41,4.33,4.33,0,0,0,1.35-1.14l.13-.14a5.81,5.81,0,0,0,.83-1.89,7.93,7.93,0,0,0,.21-2.32l.79,0a8.68,8.68,0,0,1-.26,2.42,5.83,5.83,0,0,1-1,2.15l-.16.24a4.74,4.74,0,0,1-1.57,1.3A4.86,4.86,0,0,1,150.87,118.54Z" transform="translate(0 -3.44)"/><path d="M174.11,115.35a4.59,4.59,0,0,1-1,1.71,4.32,4.32,0,0,1-1.62,1.1,5.66,5.66,0,0,1-2.11.38,5.3,5.3,0,0,1-2.84-.75,5,5,0,0,1-1.89-2.11,8.27,8.27,0,0,1,0-6.52,5,5,0,0,1,1.88-2.11,5.27,5.27,0,0,1,2.83-.75,6.21,6.21,0,0,1,2.12.33,4.26,4.26,0,0,1,1.54,1,4.38,4.38,0,0,1,.95,1.61l-.88.42a3.62,3.62,0,0,0-1.32-1.88,3.94,3.94,0,0,0-2.35-.64,4.19,4.19,0,0,0-3.94,2.46,6.44,6.44,0,0,0-.56,2.83,6.68,6.68,0,0,0,.55,2.83,4.45,4.45,0,0,0,6.36,1.77,3.57,3.57,0,0,0,1.4-2Z" transform="translate(0 -3.44)"/><path d="M180.07,109.18a4.36,4.36,0,0,1,2.22.56,3.86,3.86,0,0,1,1.51,1.61,6,6,0,0,1,0,5,3.86,3.86,0,0,1-1.51,1.61,4.68,4.68,0,0,1-4.44,0,3.94,3.94,0,0,1-1.52-1.61,6.1,6.1,0,0,1,0-5,3.94,3.94,0,0,1,1.52-1.61A4.36,4.36,0,0,1,180.07,109.18Zm0,.77a3.33,3.33,0,0,0-1.78.47,3.09,3.09,0,0,0-1.18,1.34,5.44,5.44,0,0,0,0,4.19,3.06,3.06,0,0,0,1.18,1.35,3.61,3.61,0,0,0,3.56,0A3.06,3.06,0,0,0,183,116a5.44,5.44,0,0,0,0-4.19,3.09,3.09,0,0,0-1.18-1.34A3.33,3.33,0,0,0,180.07,110Z" transform="translate(0 -3.44)"/><path d="M186.93,118.36v-9h.81l0,1.87a3,3,0,0,1,1.29-1.51,3.74,3.74,0,0,1,2-.54,3.62,3.62,0,0,1,2,.56,2.83,2.83,0,0,1,1.18,1.64,2.9,2.9,0,0,1,.76-1.18,3.67,3.67,0,0,1,1.22-.77,4.06,4.06,0,0,1,1.46-.27,4,4,0,0,1,1.7.37,2.86,2.86,0,0,1,1.22,1.12,3.47,3.47,0,0,1,.46,1.86v5.83h-.9V112.6a2.56,2.56,0,0,0-.71-2,2.65,2.65,0,0,0-1.88-.66,3.11,3.11,0,0,0-1.56.41,3,3,0,0,0-1.15,1.13,3.34,3.34,0,0,0-.42,1.69v5.18h-.9v-5.74a2.56,2.56,0,0,0-.72-2A2.65,2.65,0,0,0,191,110a3.17,3.17,0,0,0-2.7,1.53,3.33,3.33,0,0,0-.45,1.77v5.09Z" transform="translate(0 -3.44)"/><path d="M204.21,118.36v-9H205l0,1.87a3,3,0,0,1,1.29-1.51,3.76,3.76,0,0,1,2-.54,3.62,3.62,0,0,1,2,.56,2.83,2.83,0,0,1,1.18,1.64,2.9,2.9,0,0,1,.76-1.18,3.67,3.67,0,0,1,1.22-.77,4.06,4.06,0,0,1,1.46-.27,4,4,0,0,1,1.7.37,2.86,2.86,0,0,1,1.22,1.12,3.47,3.47,0,0,1,.46,1.86v5.83h-.9V112.6a2.56,2.56,0,0,0-.71-2,2.65,2.65,0,0,0-1.88-.66,3.11,3.11,0,0,0-1.56.41,3,3,0,0,0-1.15,1.13,3.34,3.34,0,0,0-.42,1.69v5.18h-.9v-5.74a2.56,2.56,0,0,0-.72-2,2.65,2.65,0,0,0-1.87-.66,3.17,3.17,0,0,0-2.7,1.53,3.33,3.33,0,0,0-.45,1.77v5.09Z" transform="translate(0 -3.44)"/><path d="M221.94,107.61a.76.76,0,1,1,.55-1.3.86.86,0,0,1,0,1.1A.73.73,0,0,1,221.94,107.61Zm.45,1.75v9h-.9v-9Z" transform="translate(0 -3.44)"/><path d="M228.63,118.54a5.11,5.11,0,0,1-2.42-.56,3.11,3.11,0,0,1-1.48-1.6l.77-.52a2.6,2.6,0,0,0,1.16,1.39,4,4,0,0,0,2.05.5,3.24,3.24,0,0,0,1.86-.47,1.43,1.43,0,0,0,.67-1.24,1.36,1.36,0,0,0-.33-.91,2.31,2.31,0,0,0-1.25-.59l-2.11-.44a3.44,3.44,0,0,1-1.84-.88,2.2,2.2,0,0,1-.12-2.76,3.08,3.08,0,0,1,1.2-.93,4.86,4.86,0,0,1,4,.18,2.87,2.87,0,0,1,1.24,1.6l-.75.48a2.26,2.26,0,0,0-1-1.39,3.4,3.4,0,0,0-1.72-.43,3.54,3.54,0,0,0-1.32.23,2.11,2.11,0,0,0-.89.61,1.36,1.36,0,0,0-.31.89,1.45,1.45,0,0,0,.36,1,2.25,2.25,0,0,0,1.28.62l2.16.46a3.4,3.4,0,0,1,1.78.82,2,2,0,0,1,.5,1.36,2.33,2.33,0,0,1-.43,1.41,2.73,2.73,0,0,1-1.22.91A5,5,0,0,1,228.63,118.54Z" transform="translate(0 -3.44)"/><path d="M237.7,118.54a5.14,5.14,0,0,1-2.42-.56,3.11,3.11,0,0,1-1.48-1.6l.77-.52a2.64,2.64,0,0,0,1.16,1.39,4,4,0,0,0,2.05.5,3.24,3.24,0,0,0,1.86-.47,1.43,1.43,0,0,0,.67-1.24,1.36,1.36,0,0,0-.33-.91,2.31,2.31,0,0,0-1.25-.59l-2.11-.44a3.48,3.48,0,0,1-1.84-.88,2.08,2.08,0,0,1-.55-1.47,2.13,2.13,0,0,1,.43-1.29,3.08,3.08,0,0,1,1.2-.93,4.86,4.86,0,0,1,4,.18,2.87,2.87,0,0,1,1.24,1.6l-.75.48a2.22,2.22,0,0,0-1-1.39,3.4,3.4,0,0,0-1.72-.43,3.58,3.58,0,0,0-1.32.23,2.07,2.07,0,0,0-.88.61,1.37,1.37,0,0,0-.32.89,1.45,1.45,0,0,0,.36,1,2.29,2.29,0,0,0,1.28.62l2.16.46a3.4,3.4,0,0,1,1.78.82,1.92,1.92,0,0,1,.5,1.36,2.33,2.33,0,0,1-.43,1.41,2.73,2.73,0,0,1-1.22.91A5,5,0,0,1,237.7,118.54Z" transform="translate(0 -3.44)"/><path d="M244.18,107.61a.71.71,0,0,1-.54-.2.83.83,0,0,1,0-1.1.72.72,0,0,1,.54-.21.72.72,0,0,1,.55.21.83.83,0,0,1,0,1.1A.72.72,0,0,1,244.18,107.61Zm.45,1.75v9h-.9v-9Z" transform="translate(0 -3.44)"/><path d="M251.51,109.18a4.36,4.36,0,0,1,2.22.56,3.88,3.88,0,0,1,1.52,1.61,6.1,6.1,0,0,1,0,5,3.88,3.88,0,0,1-1.52,1.61,4.68,4.68,0,0,1-4.44,0,3.86,3.86,0,0,1-1.51-1.61,6,6,0,0,1,0-5,3.86,3.86,0,0,1,1.51-1.61A4.36,4.36,0,0,1,251.51,109.18Zm0,.77a3.33,3.33,0,0,0-1.78.47,3.16,3.16,0,0,0-1.18,1.34,5.44,5.44,0,0,0,0,4.19,3.13,3.13,0,0,0,1.18,1.35,3.61,3.61,0,0,0,3.56,0,3.06,3.06,0,0,0,1.18-1.35,5.32,5.32,0,0,0,0-4.19,3.09,3.09,0,0,0-1.18-1.34A3.3,3.3,0,0,0,251.51,110Z" transform="translate(0 -3.44)"/><path d="M258.37,118.36v-9h.81l.07,2.25-.14-.13a3.29,3.29,0,0,1,.75-1.25,3.41,3.41,0,0,1,1.21-.78,4.17,4.17,0,0,1,1.51-.27,4,4,0,0,1,1.78.38,2.81,2.81,0,0,1,1.22,1.12,3.57,3.57,0,0,1,.44,1.85v5.83h-.9v-5.54a2.81,2.81,0,0,0-.73-2.16,2.66,2.66,0,0,0-1.9-.69,3.26,3.26,0,0,0-1.57.39,3,3,0,0,0-1.19,1.12,3.35,3.35,0,0,0-.46,1.8v5.08Z" transform="translate(0 -3.44)"/><path d="M269.58,107.61a.73.73,0,0,1-.55-.2.86.86,0,0,1,0-1.1.78.78,0,1,1,.55,1.3Zm.45,1.75v9h-.9v-9Z" transform="translate(0 -3.44)"/><path d="M273.24,118.36v-9h.81l.07,2.25-.15-.13a3.31,3.31,0,0,1,.76-1.25,3.41,3.41,0,0,1,1.21-.78,4.13,4.13,0,0,1,1.51-.27,4,4,0,0,1,1.78.38,2.81,2.81,0,0,1,1.22,1.12,3.57,3.57,0,0,1,.44,1.85v5.83H280v-5.54a2.84,2.84,0,0,0-.73-2.16,2.66,2.66,0,0,0-1.9-.69,3.3,3.3,0,0,0-1.58.39,3.09,3.09,0,0,0-1.18,1.12,3.35,3.35,0,0,0-.46,1.8v5.08Z" transform="translate(0 -3.44)"/><path d="M288.61,117.44a3.48,3.48,0,0,1,2.09.56,1.76,1.76,0,0,1,.75,1.49,2,2,0,0,1-.55,1.44,3.54,3.54,0,0,1-1.5,1,6.4,6.4,0,0,1-2.18.34,5.81,5.81,0,0,1-3.11-.69A2,2,0,0,1,283,119.8a1.79,1.79,0,0,1,.55-1.31,2.47,2.47,0,0,1,1.61-.67l-.07.16a2.64,2.64,0,0,1-1-.54,1.35,1.35,0,0,1-.44-1.08,1.54,1.54,0,0,1,.57-1.23,2.53,2.53,0,0,1,1.5-.55l.95.32h-.38a2.61,2.61,0,0,0-1.32.41,1.06,1.06,0,0,0-.49.91,1,1,0,0,0,.47.92,2.27,2.27,0,0,0,1.22.3Zm-1.51-8.26a4.51,4.51,0,0,1,1.88.37,3,3,0,0,1,1.27,1,2.63,2.63,0,0,1,.45,1.53,2.7,2.7,0,0,1-.45,1.54,3,3,0,0,1-1.27,1,4.67,4.67,0,0,1-1.88.37,4.07,4.07,0,0,1-2.68-.82,2.68,2.68,0,0,1-1-2.14,2.56,2.56,0,0,1,.46-1.53,3.07,3.07,0,0,1,1.28-1A4.51,4.51,0,0,1,287.1,109.18Zm.12,12.29a5.72,5.72,0,0,0,1.82-.25,2.87,2.87,0,0,0,1.16-.67,1.35,1.35,0,0,0,.41-1,1.17,1.17,0,0,0-.55-1,2.91,2.91,0,0,0-1.67-.38h-2.55a2.4,2.4,0,0,0-1.41.39,1.26,1.26,0,0,0-.56,1.07,1.48,1.48,0,0,0,.9,1.3A5.07,5.07,0,0,0,287.22,121.47Zm-.12-11.55a3,3,0,0,0-2,.6,1.93,1.93,0,0,0-.75,1.59,2,2,0,0,0,.75,1.61,3,3,0,0,0,2,.61,3,3,0,0,0,1.93-.61,2,2,0,0,0,.75-1.61,1.93,1.93,0,0,0-.75-1.59A3,3,0,0,0,287.1,109.92Zm4.35-2.22.22.8h-.09a1.87,1.87,0,0,0-1.36.46,1.67,1.67,0,0,0-.48,1.28l-.57-.29a2.34,2.34,0,0,1,.28-1.18,2.09,2.09,0,0,1,.8-.79,2.34,2.34,0,0,1,1.13-.28h.07Z" transform="translate(0 -3.44)"/></g></svg>